<mxfile host="app.diagrams.net" modified="2023-05-10T19:17:01.363Z" agent="Mozilla/5.0 (Windows NT 10.0; Win64; x64) AppleWebKit/537.36 (KHTML, like Gecko) Chrome/113.0.0.0 Safari/537.36" etag="s8d_TCITReGfpzXaUTiQ" version="21.2.9" type="device">
  <diagram name="Page-1" id="d_QyHkv3MP2zVZbq_5V4">
    <mxGraphModel dx="1034" dy="523" grid="0" gridSize="10" guides="1" tooltips="1" connect="1" arrows="1" fold="1" page="0" pageScale="1" pageWidth="850" pageHeight="1100" math="0" shadow="0">
      <root>
        <mxCell id="0" />
        <mxCell id="1" parent="0" />
      </root>
    </mxGraphModel>
  </diagram>
</mxfile>
